<?xml version="1.0" encoding="utf-8"?>
<!-- Generator: Adobe Illustrator 25.2.0, SVG Export Plug-In . SVG Version: 6.00 Build 0)  -->
<svg version="1.1" id="Layer_1" xmlns="http://www.w3.org/2000/svg" xmlns:xlink="http://www.w3.org/1999/xlink" x="0px" y="0px"
	 viewBox="0 0 360 360" style="enable-background:new 0 0 360 360;" xml:space="preserve">
<style type="text/css">
	.st0{fill:none;stroke:#FFFFFF;stroke-width:4;stroke-miterlimit:10;}
	.st1{fill:none;stroke:#FFFFFF;stroke-width:4;stroke-linecap:round;stroke-linejoin:round;stroke-miterlimit:10;}
	.st2{opacity:0.43;fill:#E0DDEB;}
	.st3{fill:none;stroke:#E86A63;stroke-width:4;stroke-miterlimit:10;}
</style>
<g>
	<path class="st0" d="M48.4,312.3c1.4-0.5,42.7,15.8,71.1,27.1c17.2,6.8,36.2,7.4,53.8,1.6l145.9-44.5c11-3.6,16.6-15.7,12.4-26.4
		l0,0c-3.7-9.4-13.6-13.5-23.7-12.1l-68.4,11.1l0,0c0.3-12.3-9.5-22.4-21.7-22.6l-54.5-0.8L133,225.1c-8.4-5.7-18.2-8.9-28.3-9.3
		c-18.6-0.6-30.8-0.6-37.1-0.6c-19.2,0-40.6,14-40.6,14"/>
</g>
<g>
	<path class="st1" d="M48.4,312.3c1.4-0.5,42.7,15.8,71.1,27.1c17.2,6.8,36.2,7.4,53.8,1.6l145.9-44.5c11-3.6,16.6-15.7,12.4-26.4
		l0,0c-3.7-9.4-13.6-13.5-23.7-12.1l-68.4,11.1"/>
	<path class="st1" d="M142.9,289.7l74.3,0.9c12.1,0.1,22-9.4,22.3-21.5l0,0c0.3-12.3-9.5-22.4-21.7-22.6l-54.5-0.8L133,225.1
		c-8.4-5.7-18.2-8.9-28.3-9.3c-18.6-0.6-30.8-0.6-37.1-0.6c-19.2,0-40.6,14-40.6,14"/>
</g>
<path class="st2" d="M318.4,84.2c-29.9-67.8-119.3-85-187.2-55.1C63.4,59,27.2,128.6,57.1,196.4c2.9,6.6,6.3,12.9,10.2,18.8
	c0.1,0,0.2,0,0.3,0c6.4,0,18.5,0,37.1,0.6c10.1,0.3,20,3.5,28.3,9.3l30.2,20.6l54.5,0.8c10.2,0.1,18.6,7.1,21,16.5
	C304.2,231.5,347.7,150.5,318.4,84.2z M255.9,142.7c0,0-4.7,29.3-61,63.8c-2,1.3-4.1,2.5-6.2,3.7c-2.1-1.2-4.3-2.5-6.3-3.7
	c-56.4-34.4-61.1-63.8-61.1-63.8s-1.1-6.7-1.1-10.2c0-21.1,17.1-38.3,38.3-38.3c12.2,0,23,5.7,30,14.5c7-8.8,17.9-14.5,30.1-14.5
	c21.2,0,38.3,17.1,38.3,38.3C257,136,255.9,142.7,255.9,142.7z"/>
<g>
	<path class="st3" d="M218.7,94.2c-12.2,0-23,5.7-30.1,14.5c-7-8.8-17.8-14.5-30-14.5c-21.2,0-38.3,17.1-38.3,38.3
		c0,3.5,1.1,10.2,1.1,10.2s4.7,29.3,61.1,63.8c2,1.3,4.1,2.5,6.3,3.7c2.1-1.2,4.2-2.5,6.2-3.7c56.3-34.4,61-63.8,61-63.8
		s1.1-6.7,1.1-10.2C257,111.4,239.8,94.2,218.7,94.2z"/>
	<g>
		<ellipse class="st3" cx="158.7" cy="133.9" rx="15" ry="15"/>
		<ellipse class="st3" cx="218.5" cy="133.9" rx="15" ry="15"/>
	</g>
</g>
</svg>
